<?xml version="1.0" encoding="UTF-8" standalone="no"?>
<!DOCTYPE svg PUBLIC "-//W3C//DTD SVG 1.0//EN"
 "http://www.w3.org/TR/2001/REC-SVG-20010904/DTD/svg10.dtd" [
 <!ATTLIST svg xmlns:xlink CDATA #FIXED "http://www.w3.org/1999/xlink">
]>
<!-- Generated by Graphviz version 2.20.2 (Tue Feb &#160;9 23:19:36 UTC 2010)
     For user: (wvk) Willem van Kerkhof,,, -->
<!-- Title: models_diagram Pages: 1 -->
<svg width="1590pt" height="1526pt"
 viewBox="0.00 0.00 1590.00 1526.00" xmlns="http://www.w3.org/2000/svg" xmlns:xlink="http://www.w3.org/1999/xlink">
<g id="graph0" class="graph" transform="scale(1 1) rotate(0) translate(4 1522)">
<title>models_diagram</title>
<polygon style="fill:white;stroke:white;" points="-4,4 -4,-1522 1586,-1522 1586,4 -4,4"/>
<!-- BankAccount -->
<g id="node1" class="node"><title>BankAccount</title>
<polyline style="fill:none;stroke:black;" points="1118,-1105 1264,-1105 "/>
<path style="fill:none;stroke:black;" d="M1264,-1105C1270,-1105 1276,-1111 1276,-1117"/>
<polyline style="fill:none;stroke:black;" points="1276,-1117 1276,-1228 "/>
<path style="fill:none;stroke:black;" d="M1276,-1228C1276,-1234 1270,-1240 1264,-1240"/>
<polyline style="fill:none;stroke:black;" points="1264,-1240 1118,-1240 "/>
<path style="fill:none;stroke:black;" d="M1118,-1240C1112,-1240 1106,-1234 1106,-1228"/>
<polyline style="fill:none;stroke:black;" points="1106,-1228 1106,-1117 "/>
<path style="fill:none;stroke:black;" d="M1106,-1117C1106,-1111 1112,-1105 1118,-1105"/>
<text text-anchor="middle" x="1191" y="-1222.9" style="font-family:Times New Roman;font-size:14.00;">BankAccount</text>
<polyline style="fill:none;stroke:black;" points="1106,-1215 1276,-1215 "/>
<text text-anchor="start" x="1114" y="-1198.4" style="font-family:Times New Roman;font-size:14.00;">bank_name :string</text>
<text text-anchor="start" x="1114" y="-1181.4" style="font-family:Times New Roman;font-size:14.00;">registrar_name :string</text>
<text text-anchor="start" x="1114" y="-1164.4" style="font-family:Times New Roman;font-size:14.00;">blz :string</text>
<text text-anchor="start" x="1114" y="-1147.4" style="font-family:Times New Roman;font-size:14.00;">number :string</text>
<text text-anchor="start" x="1114" y="-1130.4" style="font-family:Times New Roman;font-size:14.00;">iban :string</text>
<text text-anchor="start" x="1114" y="-1113.4" style="font-family:Times New Roman;font-size:14.00;">bic :string</text>
</g>
<!-- Category -->
<g id="node2" class="node"><title>Category</title>
<polyline style="fill:none;stroke:black;" points="29,-472 145,-472 "/>
<path style="fill:none;stroke:black;" d="M145,-472C151,-472 157,-478 157,-484"/>
<polyline style="fill:none;stroke:black;" points="157,-484 157,-527 "/>
<path style="fill:none;stroke:black;" d="M157,-527C157,-533 151,-539 145,-539"/>
<polyline style="fill:none;stroke:black;" points="145,-539 29,-539 "/>
<path style="fill:none;stroke:black;" d="M29,-539C23,-539 17,-533 17,-527"/>
<polyline style="fill:none;stroke:black;" points="17,-527 17,-484 "/>
<path style="fill:none;stroke:black;" d="M17,-484C17,-478 23,-472 29,-472"/>
<text text-anchor="middle" x="87" y="-521.9" style="font-family:Times New Roman;font-size:14.00;">Category</text>
<polyline style="fill:none;stroke:black;" points="17,-514 157,-514 "/>
<text text-anchor="start" x="25" y="-497.4" style="font-family:Times New Roman;font-size:14.00;">name :string</text>
<text text-anchor="start" x="25" y="-480.4" style="font-family:Times New Roman;font-size:14.00;">description :string</text>
</g>
<!-- Product -->
<g id="node21" class="node"><title>Product</title>
<polyline style="fill:none;stroke:black;" points="425,-610 547,-610 "/>
<path style="fill:none;stroke:black;" d="M547,-610C553,-610 559,-616 559,-622"/>
<polyline style="fill:none;stroke:black;" points="559,-622 559,-665 "/>
<path style="fill:none;stroke:black;" d="M559,-665C559,-671 553,-677 547,-677"/>
<polyline style="fill:none;stroke:black;" points="547,-677 425,-677 "/>
<path style="fill:none;stroke:black;" d="M425,-677C419,-677 413,-671 413,-665"/>
<polyline style="fill:none;stroke:black;" points="413,-665 413,-622 "/>
<path style="fill:none;stroke:black;" d="M413,-622C413,-616 419,-610 425,-610"/>
<text text-anchor="middle" x="486" y="-659.9" style="font-family:Times New Roman;font-size:14.00;">Product</text>
<polyline style="fill:none;stroke:black;" points="413,-652 559,-652 "/>
<text text-anchor="start" x="421" y="-635.4" style="font-family:Times New Roman;font-size:14.00;">code :string</text>
<text text-anchor="start" x="421" y="-618.4" style="font-family:Times New Roman;font-size:14.00;">article_type :string</text>
</g>
<!-- Category&#45;&gt;Product -->
<g id="edge2" class="edge"><title>Category&#45;&gt;Product</title>
<path style="fill:none;stroke:black;" d="M166,-533C235,-557 334,-592 403,-616"/>
<polygon style="fill:black;stroke:black;" points="166.487,-533.162 158.423,-525.731 161.743,-531.581 157,-530 157,-530 157,-530 161.743,-531.581 155.577,-534.269 166.487,-533.162 166.487,-533.162"/>
<polygon style="fill:black;stroke:black;" points="403.422,-616.126 411.707,-623.31 408.211,-617.563 413,-619 413,-619 413,-619 408.211,-617.563 414.293,-614.69 403.422,-616.126 403.422,-616.126"/>
</g>
<!-- ProductStockEntry -->
<g id="node3" class="node"><title>ProductStockEntry</title>
<polyline style="fill:none;stroke:black;" points="57,-1444 179,-1444 "/>
<path style="fill:none;stroke:black;" d="M179,-1444C185,-1444 191,-1450 191,-1456"/>
<polyline style="fill:none;stroke:black;" points="191,-1456 191,-1499 "/>
<path style="fill:none;stroke:black;" d="M191,-1499C191,-1505 185,-1511 179,-1511"/>
<polyline style="fill:none;stroke:black;" points="179,-1511 57,-1511 "/>
<path style="fill:none;stroke:black;" d="M57,-1511C51,-1511 45,-1505 45,-1499"/>
<polyline style="fill:none;stroke:black;" points="45,-1499 45,-1456 "/>
<path style="fill:none;stroke:black;" d="M45,-1456C45,-1450 51,-1444 57,-1444"/>
<text text-anchor="middle" x="118" y="-1493.9" style="font-family:Times New Roman;font-size:14.00;">ProductStockEntry</text>
<polyline style="fill:none;stroke:black;" points="45,-1486 191,-1486 "/>
<text text-anchor="start" x="53" y="-1469.4" style="font-family:Times New Roman;font-size:14.00;">serial :integer</text>
<text text-anchor="start" x="53" y="-1452.4" style="font-family:Times New Roman;font-size:14.00;">remarks :string</text>
</g>
<!-- Rental -->
<g id="node4" class="node"><title>Rental</title>
<polyline style="fill:none;stroke:black;" points="707,-753 872,-753 "/>
<path style="fill:none;stroke:black;" d="M872,-753C878,-753 884,-759 884,-765"/>
<polyline style="fill:none;stroke:black;" points="884,-765 884,-893 "/>
<path style="fill:none;stroke:black;" d="M884,-893C884,-899 878,-905 872,-905"/>
<polyline style="fill:none;stroke:black;" points="872,-905 707,-905 "/>
<path style="fill:none;stroke:black;" d="M707,-905C701,-905 695,-899 695,-893"/>
<polyline style="fill:none;stroke:black;" points="695,-893 695,-765 "/>
<path style="fill:none;stroke:black;" d="M695,-765C695,-759 701,-753 707,-753"/>
<text text-anchor="middle" x="789" y="-887.9" style="font-family:Times New Roman;font-size:14.00;">Rental</text>
<polyline style="fill:none;stroke:black;" points="695,-880 884,-880 "/>
<text text-anchor="start" x="702.5" y="-862.9" style="font-family:Times New Roman;font-size:14.00;">begin :datetime</text>
<text text-anchor="start" x="702.5" y="-845.9" style="font-family:Times New Roman;font-size:14.00;">end :datetime</text>
<text text-anchor="start" x="702.5" y="-828.9" style="font-family:Times New Roman;font-size:14.00;">discount_i :integer</text>
<text text-anchor="start" x="702.5" y="-811.9" style="font-family:Times New Roman;font-size:14.00;">client_discount_i :integer</text>
<text text-anchor="start" x="702.5" y="-794.9" style="font-family:Times New Roman;font-size:14.00;">usage_duration :integer</text>
<text text-anchor="start" x="702.5" y="-777.9" style="font-family:Times New Roman;font-size:14.00;">billed_duration :float</text>
<text text-anchor="start" x="702.5" y="-760.9" style="font-family:Times New Roman;font-size:14.00;">workflow_state :string</text>
</g>
<!-- RentalPeriod -->
<g id="node9" class="node"><title>RentalPeriod</title>
<polyline style="fill:none;stroke:black;" points="476,-992 606,-992 "/>
<path style="fill:none;stroke:black;" d="M606,-992C612,-992 618,-998 618,-1004"/>
<polyline style="fill:none;stroke:black;" points="618,-1004 618,-1081 "/>
<path style="fill:none;stroke:black;" d="M618,-1081C618,-1087 612,-1093 606,-1093"/>
<polyline style="fill:none;stroke:black;" points="606,-1093 476,-1093 "/>
<path style="fill:none;stroke:black;" d="M476,-1093C470,-1093 464,-1087 464,-1081"/>
<polyline style="fill:none;stroke:black;" points="464,-1081 464,-1004 "/>
<path style="fill:none;stroke:black;" d="M464,-1004C464,-998 470,-992 476,-992"/>
<text text-anchor="middle" x="541" y="-1075.9" style="font-family:Times New Roman;font-size:14.00;">RentalPeriod</text>
<polyline style="fill:none;stroke:black;" points="464,-1068 618,-1068 "/>
<text text-anchor="start" x="472" y="-1051.4" style="font-family:Times New Roman;font-size:14.00;">comments :string</text>
<text text-anchor="start" x="472" y="-1034.4" style="font-family:Times New Roman;font-size:14.00;">count :integer</text>
<text text-anchor="start" x="472" y="-1017.4" style="font-family:Times New Roman;font-size:14.00;">unit_price_i :integer</text>
<text text-anchor="start" x="472" y="-1000.4" style="font-family:Times New Roman;font-size:14.00;">price_i :integer</text>
</g>
<!-- Rental&#45;&gt;RentalPeriod -->
<g id="edge4" class="edge"><title>Rental&#45;&gt;RentalPeriod</title>
<path style="fill:none;stroke:black;" d="M693,-912C664,-937 634,-964 607,-987"/>
<polygon style="fill:black;stroke:black;" points="693.474,-911.585 703.963,-908.387 697.237,-908.293 701,-905 701,-905 701,-905 697.237,-908.293 698.037,-901.613 693.474,-911.585 693.474,-911.585"/>
<ellipse style="fill:black;stroke:black;" cx="604.073" cy="-989.439" rx="4.00002" ry="4.00002"/>
<text text-anchor="middle" x="639" y="-929.9" style="font-family:Times New Roman;font-size:14.00;">items</text>
</g>
<!-- UserSession -->
<g id="node5" class="node"><title>UserSession</title>
<polygon style="fill:none;stroke:black;" points="936,-851 936,-901 1035,-901 1035,-851 936,-851"/>
<text text-anchor="middle" x="985" y="-883.9" style="font-family:Times New Roman;font-size:14.00;">UserSession</text>
<polyline style="fill:none;stroke:black;" points="936,-876 1035,-876 "/>
<text text-anchor="middle" x="985" y="-858.9" style="font-family:Times New Roman;font-size:14.00;"> </text>
</g>
<!-- Invoice -->
<g id="node6" class="node"><title>Invoice</title>
<polyline style="fill:none;stroke:black;" points="923,-1416 1053,-1416 "/>
<path style="fill:none;stroke:black;" d="M1053,-1416C1059,-1416 1065,-1422 1065,-1428"/>
<polyline style="fill:none;stroke:black;" points="1065,-1428 1065,-1505 "/>
<path style="fill:none;stroke:black;" d="M1065,-1505C1065,-1511 1059,-1517 1053,-1517"/>
<polyline style="fill:none;stroke:black;" points="1053,-1517 923,-1517 "/>
<path style="fill:none;stroke:black;" d="M923,-1517C917,-1517 911,-1511 911,-1505"/>
<polyline style="fill:none;stroke:black;" points="911,-1505 911,-1428 "/>
<path style="fill:none;stroke:black;" d="M911,-1428C911,-1422 917,-1416 923,-1416"/>
<text text-anchor="middle" x="988" y="-1499.9" style="font-family:Times New Roman;font-size:14.00;">Invoice</text>
<polyline style="fill:none;stroke:black;" points="911,-1492 1065,-1492 "/>
<text text-anchor="start" x="919" y="-1475.4" style="font-family:Times New Roman;font-size:14.00;">date :date</text>
<text text-anchor="start" x="919" y="-1458.4" style="font-family:Times New Roman;font-size:14.00;">process_type :string</text>
<text text-anchor="start" x="919" y="-1441.4" style="font-family:Times New Roman;font-size:14.00;">price_i :integer</text>
<text text-anchor="start" x="919" y="-1424.4" style="font-family:Times New Roman;font-size:14.00;">remarks :string</text>
</g>
<!-- InvoiceItem -->
<g id="node12" class="node"><title>InvoiceItem</title>
<polyline style="fill:none;stroke:black;" points="1375,-1398 1543,-1398 "/>
<path style="fill:none;stroke:black;" d="M1543,-1398C1549,-1398 1555,-1404 1555,-1410"/>
<polyline style="fill:none;stroke:black;" points="1555,-1410 1555,-1470 "/>
<path style="fill:none;stroke:black;" d="M1555,-1470C1555,-1476 1549,-1482 1543,-1482"/>
<polyline style="fill:none;stroke:black;" points="1543,-1482 1375,-1482 "/>
<path style="fill:none;stroke:black;" d="M1375,-1482C1369,-1482 1363,-1476 1363,-1470"/>
<polyline style="fill:none;stroke:black;" points="1363,-1470 1363,-1410 "/>
<path style="fill:none;stroke:black;" d="M1363,-1410C1363,-1404 1369,-1398 1375,-1398"/>
<text text-anchor="middle" x="1459" y="-1464.9" style="font-family:Times New Roman;font-size:14.00;">InvoiceItem</text>
<polyline style="fill:none;stroke:black;" points="1363,-1457 1555,-1457 "/>
<text text-anchor="start" x="1371" y="-1439.9" style="font-family:Times New Roman;font-size:14.00;">process_item_type :string</text>
<text text-anchor="start" x="1371" y="-1422.9" style="font-family:Times New Roman;font-size:14.00;">price_i :integer</text>
<text text-anchor="start" x="1371" y="-1405.9" style="font-family:Times New Roman;font-size:14.00;">remarks :string</text>
</g>
<!-- Invoice&#45;&gt;InvoiceItem -->
<g id="edge10" class="edge"><title>Invoice&#45;&gt;InvoiceItem</title>
<path style="fill:none;stroke:black;" d="M1075,-1462C1154,-1457 1271,-1451 1355,-1446"/>
<polygon style="fill:black;stroke:black;" points="1074.95,-1462 1064.55,-1458.52 1069.98,-1462.5 1065,-1463 1065,-1463 1065,-1463 1069.98,-1462.5 1065.45,-1467.48 1074.95,-1462 1074.95,-1462"/>
<ellipse style="fill:black;stroke:black;" cx="1359" cy="-1446" rx="4" ry="4"/>
<text text-anchor="middle" x="1213" y="-1439.9" style="font-family:Times New Roman;font-size:14.00;">items</text>
</g>
<!-- Device -->
<g id="node7" class="node"><title>Device</title>
<polyline style="fill:none;stroke:black;" points="13,-974 162,-974 "/>
<path style="fill:none;stroke:black;" d="M162,-974C168,-974 174,-980 174,-986"/>
<polyline style="fill:none;stroke:black;" points="174,-986 174,-1216 "/>
<path style="fill:none;stroke:black;" d="M174,-1216C174,-1222 168,-1228 162,-1228"/>
<polyline style="fill:none;stroke:black;" points="162,-1228 13,-1228 "/>
<path style="fill:none;stroke:black;" d="M13,-1228C7,-1228 1,-1222 1,-1216"/>
<polyline style="fill:none;stroke:black;" points="1,-1216 1,-986 "/>
<path style="fill:none;stroke:black;" d="M1,-986C1,-980 7,-974 13,-974"/>
<text text-anchor="middle" x="87" y="-1210.9" style="font-family:Times New Roman;font-size:14.00;">Device</text>
<polyline style="fill:none;stroke:black;" points="1,-1203 174,-1203 "/>
<text text-anchor="start" x="8.5" y="-1185.9" style="font-family:Times New Roman;font-size:14.00;">name :string</text>
<text text-anchor="start" x="8.5" y="-1168.9" style="font-family:Times New Roman;font-size:14.00;">description :string</text>
<text text-anchor="start" x="8.5" y="-1151.9" style="font-family:Times New Roman;font-size:14.00;">width :integer</text>
<text text-anchor="start" x="8.5" y="-1134.9" style="font-family:Times New Roman;font-size:14.00;">height :integer</text>
<text text-anchor="start" x="8.5" y="-1117.9" style="font-family:Times New Roman;font-size:14.00;">length :integer</text>
<text text-anchor="start" x="8.5" y="-1100.9" style="font-family:Times New Roman;font-size:14.00;">weight :integer</text>
<text text-anchor="start" x="8.5" y="-1083.9" style="font-family:Times New Roman;font-size:14.00;">image :string</text>
<text text-anchor="start" x="8.5" y="-1066.9" style="font-family:Times New Roman;font-size:14.00;">manufacturer :string</text>
<text text-anchor="start" x="8.5" y="-1049.9" style="font-family:Times New Roman;font-size:14.00;">buying_price_i :integer</text>
<text text-anchor="start" x="8.5" y="-1032.9" style="font-family:Times New Roman;font-size:14.00;">selling_price_i :integer</text>
<text text-anchor="start" x="8.5" y="-1015.9" style="font-family:Times New Roman;font-size:14.00;">vat_rate :float</text>
<text text-anchor="start" x="8.5" y="-998.9" style="font-family:Times New Roman;font-size:14.00;">unit :string</text>
<text text-anchor="start" x="8.5" y="-981.9" style="font-family:Times New Roman;font-size:14.00;">rental_price_i :integer</text>
</g>
<!-- Device&#45;&gt;ProductStockEntry -->
<g id="edge14" class="edge"><title>Device&#45;&gt;ProductStockEntry</title>
<path style="fill:none;stroke:black;" d="M98,-1238C104,-1308 110,-1388 114,-1436"/>
<polygon style="fill:black;stroke:black;" points="97.9951,-1237.95 101.478,-1227.55 97.4976,-1232.98 97,-1228 97,-1228 97,-1228 97.4976,-1232.98 92.5223,-1228.45 97.9951,-1237.95 97.9951,-1237.95"/>
<ellipse style="fill:black;stroke:black;" cx="114.504" cy="-1440.03" rx="4.00001" ry="4.00001"/>
<text text-anchor="middle" x="124" y="-1330.9" style="font-family:Times New Roman;font-size:14.00;">stock_entries</text>
</g>
<!-- Device&#45;&gt;Product -->
<g id="edge12" class="edge"><title>Device&#45;&gt;Product</title>
<path style="fill:none;stroke:black;" d="M179,-995C265,-896 391,-752 452,-683"/>
<ellipse style="fill:none;stroke:black;" cx="176.561" cy="-997.927" rx="4.00002" ry="4.00002"/>
<ellipse style="fill:black;stroke:black;" cx="454.439" cy="-680.073" rx="4.00002" ry="4.00002"/>
</g>
<!-- Service -->
<g id="node8" class="node"><title>Service</title>
<polyline style="fill:none;stroke:black;" points="21,-756 151,-756 "/>
<path style="fill:none;stroke:black;" d="M151,-756C157,-756 163,-762 163,-768"/>
<polyline style="fill:none;stroke:black;" points="163,-768 163,-845 "/>
<path style="fill:none;stroke:black;" d="M163,-845C163,-851 157,-857 151,-857"/>
<polyline style="fill:none;stroke:black;" points="151,-857 21,-857 "/>
<path style="fill:none;stroke:black;" d="M21,-857C15,-857 9,-851 9,-845"/>
<polyline style="fill:none;stroke:black;" points="9,-845 9,-768 "/>
<path style="fill:none;stroke:black;" d="M9,-768C9,-762 15,-756 21,-756"/>
<text text-anchor="middle" x="86" y="-839.9" style="font-family:Times New Roman;font-size:14.00;">Service</text>
<polyline style="fill:none;stroke:black;" points="9,-832 163,-832 "/>
<text text-anchor="start" x="17" y="-815.4" style="font-family:Times New Roman;font-size:14.00;">name :string</text>
<text text-anchor="start" x="17" y="-798.4" style="font-family:Times New Roman;font-size:14.00;">description :text</text>
<text text-anchor="start" x="17" y="-781.4" style="font-family:Times New Roman;font-size:14.00;">unit_price_i :integer</text>
<text text-anchor="start" x="17" y="-764.4" style="font-family:Times New Roman;font-size:14.00;">unit :string</text>
</g>
<!-- Service&#45;&gt;Product -->
<g id="edge16" class="edge"><title>Service&#45;&gt;Product</title>
<path style="fill:none;stroke:black;" d="M171,-773C239,-744 336,-705 405,-677"/>
<ellipse style="fill:none;stroke:black;" cx="166.745" cy="-774.595" rx="4.00001" ry="4.00001"/>
<ellipse style="fill:black;stroke:black;" cx="409.255" cy="-675.405" rx="4.00001" ry="4.00001"/>
</g>
<!-- RentalPeriod&#45;&gt;ProductStockEntry -->
<g id="edge18" class="edge"><title>RentalPeriod&#45;&gt;ProductStockEntry</title>
<path style="fill:none;stroke:black;" d="M485,-1100C399,-1190 234,-1359 158,-1437"/>
<polygon style="fill:black;stroke:black;" points="484.929,-1100.07 495.182,-1096.18 488.464,-1096.54 492,-1093 492,-1093 492,-1093 488.464,-1096.54 488.818,-1089.82 484.929,-1100.07 484.929,-1100.07"/>
<polygon style="fill:black;stroke:black;" points="158.071,-1436.93 147.818,-1440.82 154.536,-1440.46 151,-1444 151,-1444 151,-1444 154.536,-1440.46 154.182,-1447.18 158.071,-1436.93 158.071,-1436.93"/>
</g>
<!-- Unavailability -->
<g id="node22" class="node"><title>Unavailability</title>
<polyline style="fill:none;stroke:black;" points="531,-1415 663,-1415 "/>
<path style="fill:none;stroke:black;" d="M663,-1415C669,-1415 675,-1421 675,-1427"/>
<polyline style="fill:none;stroke:black;" points="675,-1427 675,-1470 "/>
<path style="fill:none;stroke:black;" d="M675,-1470C675,-1476 669,-1482 663,-1482"/>
<polyline style="fill:none;stroke:black;" points="663,-1482 531,-1482 "/>
<path style="fill:none;stroke:black;" d="M531,-1482C525,-1482 519,-1476 519,-1470"/>
<polyline style="fill:none;stroke:black;" points="519,-1470 519,-1427 "/>
<path style="fill:none;stroke:black;" d="M519,-1427C519,-1421 525,-1415 531,-1415"/>
<text text-anchor="middle" x="597" y="-1464.9" style="font-family:Times New Roman;font-size:14.00;">Unavailability</text>
<polyline style="fill:none;stroke:black;" points="519,-1457 675,-1457 "/>
<text text-anchor="start" x="527" y="-1440.4" style="font-family:Times New Roman;font-size:14.00;">from_date :datetime</text>
<text text-anchor="start" x="527" y="-1423.4" style="font-family:Times New Roman;font-size:14.00;">to_date :datetime</text>
</g>
<!-- RentalPeriod&#45;&gt;Unavailability -->
<g id="edge20" class="edge"><title>RentalPeriod&#45;&gt;Unavailability</title>
<path style="fill:none;stroke:black;" d="M549,-1103C562,-1187 581,-1335 591,-1407"/>
<polygon style="fill:black;stroke:black;" points="548.995,-1102.95 552.478,-1092.55 548.498,-1097.98 548,-1093 548,-1093 548,-1093 548.498,-1097.98 543.522,-1093.45 548.995,-1102.95 548.995,-1102.95"/>
<ellipse style="fill:black;stroke:black;" cx="591.504" cy="-1411.03" rx="4.00001" ry="4.00001"/>
</g>
<!-- ProductBuyingPrice -->
<g id="node10" class="node"><title>ProductBuyingPrice</title>
<polyline style="fill:none;stroke:black;" points="44,-99 171,-99 "/>
<path style="fill:none;stroke:black;" d="M171,-99C177,-99 183,-105 183,-111"/>
<polyline style="fill:none;stroke:black;" points="183,-111 183,-154 "/>
<path style="fill:none;stroke:black;" d="M183,-154C183,-160 177,-166 171,-166"/>
<polyline style="fill:none;stroke:black;" points="171,-166 44,-166 "/>
<path style="fill:none;stroke:black;" d="M44,-166C38,-166 32,-160 32,-154"/>
<polyline style="fill:none;stroke:black;" points="32,-154 32,-111 "/>
<path style="fill:none;stroke:black;" d="M32,-111C32,-105 38,-99 44,-99"/>
<text text-anchor="middle" x="107" y="-148.9" style="font-family:Times New Roman;font-size:14.00;">ProductBuyingPrice</text>
<polyline style="fill:none;stroke:black;" points="32,-141 183,-141 "/>
<text text-anchor="start" x="39.5" y="-124.4" style="font-family:Times New Roman;font-size:14.00;">price_i :integer</text>
<text text-anchor="start" x="39.5" y="-107.4" style="font-family:Times New Roman;font-size:14.00;">article_no :string</text>
</g>
<!-- Address -->
<g id="node11" class="node"><title>Address</title>
<polyline style="fill:none;stroke:black;" points="693,-936 807,-936 "/>
<path style="fill:none;stroke:black;" d="M807,-936C813,-936 819,-942 819,-948"/>
<polyline style="fill:none;stroke:black;" points="819,-948 819,-1076 "/>
<path style="fill:none;stroke:black;" d="M819,-1076C819,-1082 813,-1088 807,-1088"/>
<polyline style="fill:none;stroke:black;" points="807,-1088 693,-1088 "/>
<path style="fill:none;stroke:black;" d="M693,-1088C687,-1088 681,-1082 681,-1076"/>
<polyline style="fill:none;stroke:black;" points="681,-1076 681,-948 "/>
<path style="fill:none;stroke:black;" d="M681,-948C681,-942 687,-936 693,-936"/>
<text text-anchor="middle" x="750" y="-1070.9" style="font-family:Times New Roman;font-size:14.00;">Address</text>
<polyline style="fill:none;stroke:black;" points="681,-1063 819,-1063 "/>
<text text-anchor="start" x="689" y="-1045.9" style="font-family:Times New Roman;font-size:14.00;">street :string</text>
<text text-anchor="start" x="689" y="-1028.9" style="font-family:Times New Roman;font-size:14.00;">postalcode :string</text>
<text text-anchor="start" x="689" y="-1011.9" style="font-family:Times New Roman;font-size:14.00;">locality :string</text>
<text text-anchor="start" x="689" y="-994.9" style="font-family:Times New Roman;font-size:14.00;">country :string</text>
<text text-anchor="start" x="689" y="-977.9" style="font-family:Times New Roman;font-size:14.00;">phone :string</text>
<text text-anchor="start" x="689" y="-960.9" style="font-family:Times New Roman;font-size:14.00;">fax :string</text>
<text text-anchor="start" x="689" y="-943.9" style="font-family:Times New Roman;font-size:14.00;">mobile :string</text>
</g>
<!-- Client -->
<g id="node13" class="node"><title>Client</title>
<polyline style="fill:none;stroke:black;" points="1029,-472 1176,-472 "/>
<path style="fill:none;stroke:black;" d="M1176,-472C1182,-472 1188,-478 1188,-484"/>
<polyline style="fill:none;stroke:black;" points="1188,-484 1188,-799 "/>
<path style="fill:none;stroke:black;" d="M1188,-799C1188,-805 1182,-811 1176,-811"/>
<polyline style="fill:none;stroke:black;" points="1176,-811 1029,-811 "/>
<path style="fill:none;stroke:black;" d="M1029,-811C1023,-811 1017,-805 1017,-799"/>
<polyline style="fill:none;stroke:black;" points="1017,-799 1017,-484 "/>
<path style="fill:none;stroke:black;" d="M1017,-484C1017,-478 1023,-472 1029,-472"/>
<text text-anchor="middle" x="1102" y="-793.9" style="font-family:Times New Roman;font-size:14.00;">Client</text>
<polyline style="fill:none;stroke:black;" points="1017,-786 1188,-786 "/>
<text text-anchor="start" x="1024.5" y="-769.4" style="font-family:Times New Roman;font-size:14.00;">forename :string</text>
<text text-anchor="start" x="1024.5" y="-752.4" style="font-family:Times New Roman;font-size:14.00;">surname :string</text>
<text text-anchor="start" x="1024.5" y="-735.4" style="font-family:Times New Roman;font-size:14.00;">title :string</text>
<text text-anchor="start" x="1024.5" y="-718.4" style="font-family:Times New Roman;font-size:14.00;">password :string</text>
<text text-anchor="start" x="1024.5" y="-701.4" style="font-family:Times New Roman;font-size:14.00;">company :string</text>
<text text-anchor="start" x="1024.5" y="-684.4" style="font-family:Times New Roman;font-size:14.00;">phone :string</text>
<text text-anchor="start" x="1024.5" y="-667.4" style="font-family:Times New Roman;font-size:14.00;">email :string</text>
<text text-anchor="start" x="1024.5" y="-650.4" style="font-family:Times New Roman;font-size:14.00;">birthday :date</text>
<text text-anchor="start" x="1024.5" y="-633.4" style="font-family:Times New Roman;font-size:14.00;">street :string</text>
<text text-anchor="start" x="1024.5" y="-616.4" style="font-family:Times New Roman;font-size:14.00;">postalcode :string</text>
<text text-anchor="start" x="1024.5" y="-599.4" style="font-family:Times New Roman;font-size:14.00;">locality :string</text>
<text text-anchor="start" x="1024.5" y="-582.4" style="font-family:Times New Roman;font-size:14.00;">client_no :string</text>
<text text-anchor="start" x="1024.5" y="-565.4" style="font-family:Times New Roman;font-size:14.00;">fax :string</text>
<text text-anchor="start" x="1024.5" y="-548.4" style="font-family:Times New Roman;font-size:14.00;">mobile :string</text>
<text text-anchor="start" x="1024.5" y="-531.4" style="font-family:Times New Roman;font-size:14.00;">homepage :string</text>
<text text-anchor="start" x="1024.5" y="-514.4" style="font-family:Times New Roman;font-size:14.00;">payment_goal :integer</text>
<text text-anchor="start" x="1024.5" y="-497.4" style="font-family:Times New Roman;font-size:14.00;">discount :integer</text>
<text text-anchor="start" x="1024.5" y="-480.4" style="font-family:Times New Roman;font-size:14.00;">remarks :string</text>
</g>
<!-- Client&#45;&gt;Rental -->
<g id="edge22" class="edge"><title>Client&#45;&gt;Rental</title>
<path style="fill:none;stroke:black;" d="M1008,-698C971,-720 928,-746 891,-768"/>
<polygon style="fill:black;stroke:black;" points="1008.26,-697.856 1019.19,-696.934 1012.63,-695.428 1017,-693 1017,-693 1017,-693 1012.63,-695.428 1014.81,-689.066 1008.26,-697.856 1008.26,-697.856"/>
<ellipse style="fill:black;stroke:black;" cx="887.473" cy="-770.015" rx="4.00002" ry="4.00002"/>
</g>
<!-- Company -->
<g id="node14" class="node"><title>Company</title>
<polyline style="fill:none;stroke:black;" points="950,-126 1029,-126 "/>
<path style="fill:none;stroke:black;" d="M1029,-126C1035,-126 1041,-132 1041,-138"/>
<polyline style="fill:none;stroke:black;" points="1041,-138 1041,-164 "/>
<path style="fill:none;stroke:black;" d="M1041,-164C1041,-170 1035,-176 1029,-176"/>
<polyline style="fill:none;stroke:black;" points="1029,-176 950,-176 "/>
<path style="fill:none;stroke:black;" d="M950,-176C944,-176 938,-170 938,-164"/>
<polyline style="fill:none;stroke:black;" points="938,-164 938,-138 "/>
<path style="fill:none;stroke:black;" d="M938,-138C938,-132 944,-126 950,-126"/>
<text text-anchor="middle" x="989" y="-158.9" style="font-family:Times New Roman;font-size:14.00;">Company</text>
<polyline style="fill:none;stroke:black;" points="938,-151 1041,-151 "/>
<text text-anchor="start" x="945.5" y="-133.9" style="font-family:Times New Roman;font-size:14.00;">name :string</text>
</g>
<!-- Company&#45;&gt;Client -->
<g id="edge24" class="edge"><title>Company&#45;&gt;Client</title>
<path style="fill:none;stroke:black;" d="M997,-186C1010,-244 1038,-362 1061,-464"/>
<polygon style="fill:black;stroke:black;" points="996.961,-185.806 999.413,-175.117 995.981,-180.903 995,-176 995,-176 995,-176 995.981,-180.903 990.587,-176.883 996.961,-185.806 996.961,-185.806"/>
<ellipse style="fill:black;stroke:black;" cx="1062.03" cy="-468.119" rx="4.00001" ry="4.00001"/>
</g>
<!-- Distributor -->
<g id="node15" class="node"><title>Distributor</title>
<polyline style="fill:none;stroke:black;" points="499,-1 647,-1 "/>
<path style="fill:none;stroke:black;" d="M647,-1C653,-1 659,-7 659,-13"/>
<polyline style="fill:none;stroke:black;" points="659,-13 659,-311 "/>
<path style="fill:none;stroke:black;" d="M659,-311C659,-317 653,-323 647,-323"/>
<polyline style="fill:none;stroke:black;" points="647,-323 499,-323 "/>
<path style="fill:none;stroke:black;" d="M499,-323C493,-323 487,-317 487,-311"/>
<polyline style="fill:none;stroke:black;" points="487,-311 487,-13 "/>
<path style="fill:none;stroke:black;" d="M487,-13C487,-7 493,-1 499,-1"/>
<text text-anchor="middle" x="573" y="-305.9" style="font-family:Times New Roman;font-size:14.00;">Distributor</text>
<polyline style="fill:none;stroke:black;" points="487,-298 659,-298 "/>
<text text-anchor="start" x="495" y="-280.9" style="font-family:Times New Roman;font-size:14.00;">company_name :string</text>
<text text-anchor="start" x="495" y="-263.9" style="font-family:Times New Roman;font-size:14.00;">contact_person :string</text>
<text text-anchor="start" x="495" y="-246.9" style="font-family:Times New Roman;font-size:14.00;">title :string</text>
<text text-anchor="start" x="495" y="-229.9" style="font-family:Times New Roman;font-size:14.00;">password :string</text>
<text text-anchor="start" x="495" y="-212.9" style="font-family:Times New Roman;font-size:14.00;">company :string</text>
<text text-anchor="start" x="495" y="-195.9" style="font-family:Times New Roman;font-size:14.00;">phone :string</text>
<text text-anchor="start" x="495" y="-178.9" style="font-family:Times New Roman;font-size:14.00;">email :string</text>
<text text-anchor="start" x="495" y="-161.9" style="font-family:Times New Roman;font-size:14.00;">mobile :string</text>
<text text-anchor="start" x="495" y="-144.9" style="font-family:Times New Roman;font-size:14.00;">fax :string</text>
<text text-anchor="start" x="495" y="-127.9" style="font-family:Times New Roman;font-size:14.00;">remarks :string</text>
<text text-anchor="start" x="495" y="-110.9" style="font-family:Times New Roman;font-size:14.00;">client_no :string</text>
<text text-anchor="start" x="495" y="-93.9" style="font-family:Times New Roman;font-size:14.00;">homepage :string</text>
<text text-anchor="start" x="495" y="-76.9" style="font-family:Times New Roman;font-size:14.00;">discount :string</text>
<text text-anchor="start" x="495" y="-59.9" style="font-family:Times New Roman;font-size:14.00;">street :string</text>
<text text-anchor="start" x="495" y="-42.9" style="font-family:Times New Roman;font-size:14.00;">postalcode :string</text>
<text text-anchor="start" x="495" y="-25.9" style="font-family:Times New Roman;font-size:14.00;">locality :string</text>
<text text-anchor="start" x="495" y="-8.9" style="font-family:Times New Roman;font-size:14.00;">country :string</text>
</g>
<!-- Company&#45;&gt;Distributor -->
<g id="edge28" class="edge"><title>Company&#45;&gt;Distributor</title>
<path style="fill:none;stroke:black;" d="M928,-152C859,-154 747,-157 667,-160"/>
<polygon style="fill:black;stroke:black;" points="928,-152 938,-156.5 933,-152 938,-152 938,-152 938,-152 933,-152 938,-147.5 928,-152 928,-152"/>
<ellipse style="fill:black;stroke:black;" cx="663" cy="-160" rx="4" ry="4"/>
</g>
<!-- CompanySection -->
<g id="node17" class="node"><title>CompanySection</title>
<polyline style="fill:none;stroke:black;" points="686,-335 896,-335 "/>
<path style="fill:none;stroke:black;" d="M896,-335C902,-335 908,-341 908,-347"/>
<polyline style="fill:none;stroke:black;" points="908,-347 908,-662 "/>
<path style="fill:none;stroke:black;" d="M908,-662C908,-668 902,-674 896,-674"/>
<polyline style="fill:none;stroke:black;" points="896,-674 686,-674 "/>
<path style="fill:none;stroke:black;" d="M686,-674C680,-674 674,-668 674,-662"/>
<polyline style="fill:none;stroke:black;" points="674,-662 674,-347 "/>
<path style="fill:none;stroke:black;" d="M674,-347C674,-341 680,-335 686,-335"/>
<text text-anchor="middle" x="791" y="-656.9" style="font-family:Times New Roman;font-size:14.00;">CompanySection</text>
<polyline style="fill:none;stroke:black;" points="674,-649 908,-649 "/>
<text text-anchor="start" x="682" y="-632.4" style="font-family:Times New Roman;font-size:14.00;">name :string</text>
<text text-anchor="start" x="682" y="-615.4" style="font-family:Times New Roman;font-size:14.00;">bank_name :string</text>
<text text-anchor="start" x="682" y="-598.4" style="font-family:Times New Roman;font-size:14.00;">bank_account :string</text>
<text text-anchor="start" x="682" y="-581.4" style="font-family:Times New Roman;font-size:14.00;">bank_account_owner :string</text>
<text text-anchor="start" x="682" y="-564.4" style="font-family:Times New Roman;font-size:14.00;">bank_blz :string</text>
<text text-anchor="start" x="682" y="-547.4" style="font-family:Times New Roman;font-size:14.00;">bank_bic :string</text>
<text text-anchor="start" x="682" y="-530.4" style="font-family:Times New Roman;font-size:14.00;">bank_iban :string</text>
<text text-anchor="start" x="682" y="-513.4" style="font-family:Times New Roman;font-size:14.00;">sender_address_block :string</text>
<text text-anchor="start" x="682" y="-496.4" style="font-family:Times New Roman;font-size:14.00;">sender_address_window :string</text>
<text text-anchor="start" x="682" y="-479.4" style="font-family:Times New Roman;font-size:14.00;">email :string</text>
<text text-anchor="start" x="682" y="-462.4" style="font-family:Times New Roman;font-size:14.00;">phone :string</text>
<text text-anchor="start" x="682" y="-445.4" style="font-family:Times New Roman;font-size:14.00;">fax :string</text>
<text text-anchor="start" x="682" y="-428.4" style="font-family:Times New Roman;font-size:14.00;">mobile :string</text>
<text text-anchor="start" x="682" y="-411.4" style="font-family:Times New Roman;font-size:14.00;">homepage :string</text>
<text text-anchor="start" x="682" y="-394.4" style="font-family:Times New Roman;font-size:14.00;">street :string</text>
<text text-anchor="start" x="682" y="-377.4" style="font-family:Times New Roman;font-size:14.00;">postalcode :string</text>
<text text-anchor="start" x="682" y="-360.4" style="font-family:Times New Roman;font-size:14.00;">locality :string</text>
<text text-anchor="start" x="682" y="-343.4" style="font-family:Times New Roman;font-size:14.00;">country :string</text>
</g>
<!-- Company&#45;&gt;CompanySection -->
<g id="edge26" class="edge"><title>Company&#45;&gt;CompanySection</title>
<path style="fill:none;stroke:black;" d="M970,-185C951,-219 921,-273 890,-328"/>
<polygon style="fill:black;stroke:black;" points="970.144,-184.742 978.934,-178.185 972.572,-180.371 975,-176 975,-176 975,-176 972.572,-180.371 971.066,-173.815 970.144,-184.742 970.144,-184.742"/>
<ellipse style="fill:black;stroke:black;" cx="887.985" cy="-331.527" rx="4.00002" ry="4.00002"/>
<text text-anchor="middle" x="952" y="-253.9" style="font-family:Times New Roman;font-size:14.00;">sections</text>
</g>
<!-- SellingItem -->
<g id="node16" class="node"><title>SellingItem</title>
<polyline style="fill:none;stroke:black;" points="1439,-568 1569,-568 "/>
<path style="fill:none;stroke:black;" d="M1569,-568C1575,-568 1581,-574 1581,-580"/>
<polyline style="fill:none;stroke:black;" points="1581,-580 1581,-657 "/>
<path style="fill:none;stroke:black;" d="M1581,-657C1581,-663 1575,-669 1569,-669"/>
<polyline style="fill:none;stroke:black;" points="1569,-669 1439,-669 "/>
<path style="fill:none;stroke:black;" d="M1439,-669C1433,-669 1427,-663 1427,-657"/>
<polyline style="fill:none;stroke:black;" points="1427,-657 1427,-580 "/>
<path style="fill:none;stroke:black;" d="M1427,-580C1427,-574 1433,-568 1439,-568"/>
<text text-anchor="middle" x="1504" y="-651.9" style="font-family:Times New Roman;font-size:14.00;">SellingItem</text>
<polyline style="fill:none;stroke:black;" points="1427,-644 1581,-644 "/>
<text text-anchor="start" x="1435" y="-627.4" style="font-family:Times New Roman;font-size:14.00;">comments :string</text>
<text text-anchor="start" x="1435" y="-610.4" style="font-family:Times New Roman;font-size:14.00;">count :float</text>
<text text-anchor="start" x="1435" y="-593.4" style="font-family:Times New Roman;font-size:14.00;">price_i :integer</text>
<text text-anchor="start" x="1435" y="-576.4" style="font-family:Times New Roman;font-size:14.00;">unit_price_i :integer</text>
</g>
<!-- CompanySection&#45;&gt;Rental -->
<g id="edge30" class="edge"><title>CompanySection&#45;&gt;Rental</title>
<path style="fill:none;stroke:black;" d="M790,-684C790,-705 789,-726 789,-745"/>
<polygon style="fill:black;stroke:black;" points="790,-684 794.5,-674 790,-679 790,-674 790,-674 790,-674 790,-679 785.5,-674 790,-684 790,-684"/>
<ellipse style="fill:black;stroke:black;" cx="789" cy="-749" rx="4" ry="4"/>
</g>
<!-- User -->
<g id="node20" class="node"><title>User</title>
<polyline style="fill:none;stroke:black;" points="1364,-25 1542,-25 "/>
<path style="fill:none;stroke:black;" d="M1542,-25C1548,-25 1554,-31 1554,-37"/>
<polyline style="fill:none;stroke:black;" points="1554,-37 1554,-301 "/>
<path style="fill:none;stroke:black;" d="M1554,-301C1554,-307 1548,-313 1542,-313"/>
<polyline style="fill:none;stroke:black;" points="1542,-313 1364,-313 "/>
<path style="fill:none;stroke:black;" d="M1364,-313C1358,-313 1352,-307 1352,-301"/>
<polyline style="fill:none;stroke:black;" points="1352,-301 1352,-37 "/>
<path style="fill:none;stroke:black;" d="M1352,-37C1352,-31 1358,-25 1364,-25"/>
<text text-anchor="middle" x="1453" y="-295.9" style="font-family:Times New Roman;font-size:14.00;">User</text>
<polyline style="fill:none;stroke:black;" points="1352,-288 1554,-288 "/>
<text text-anchor="start" x="1360" y="-270.9" style="font-family:Times New Roman;font-size:14.00;">forename :string</text>
<text text-anchor="start" x="1360" y="-253.9" style="font-family:Times New Roman;font-size:14.00;">surname :string</text>
<text text-anchor="start" x="1360" y="-236.9" style="font-family:Times New Roman;font-size:14.00;">login :string</text>
<text text-anchor="start" x="1360" y="-219.9" style="font-family:Times New Roman;font-size:14.00;">password_hash :string</text>
<text text-anchor="start" x="1360" y="-202.9" style="font-family:Times New Roman;font-size:14.00;">crypted_password :string</text>
<text text-anchor="start" x="1360" y="-185.9" style="font-family:Times New Roman;font-size:14.00;">password_salt :string</text>
<text text-anchor="start" x="1360" y="-168.9" style="font-family:Times New Roman;font-size:14.00;">persistence_token :string</text>
<text text-anchor="start" x="1360" y="-151.9" style="font-family:Times New Roman;font-size:14.00;">single_access_token :string</text>
<text text-anchor="start" x="1360" y="-134.9" style="font-family:Times New Roman;font-size:14.00;">perishable_token :string</text>
<text text-anchor="start" x="1360" y="-117.9" style="font-family:Times New Roman;font-size:14.00;">last_request_at :datetime</text>
<text text-anchor="start" x="1360" y="-100.9" style="font-family:Times New Roman;font-size:14.00;">current_login_at :datetime</text>
<text text-anchor="start" x="1360" y="-83.9" style="font-family:Times New Roman;font-size:14.00;">last_login_at :datetime</text>
<text text-anchor="start" x="1360" y="-66.9" style="font-family:Times New Roman;font-size:14.00;">current_login_ip :string</text>
<text text-anchor="start" x="1360" y="-49.9" style="font-family:Times New Roman;font-size:14.00;">last_login_ip :string</text>
<text text-anchor="start" x="1360" y="-32.9" style="font-family:Times New Roman;font-size:14.00;">email :string</text>
</g>
<!-- CompanySection&#45;&gt;User -->
<g id="edge34" class="edge"><title>CompanySection&#45;&gt;User</title>
<path style="fill:none;stroke:black;" d="M917,-441C1040,-378 1228,-284 1345,-224"/>
<polygon style="fill:black;stroke:black;" points="916.742,-441.144 905.815,-442.066 912.371,-443.572 908,-446 908,-446 908,-446 912.371,-443.572 910.185,-449.934 916.742,-441.144 916.742,-441.144"/>
<ellipse style="fill:black;stroke:black;" cx="1348.53" cy="-221.985" rx="4.00002" ry="4.00002"/>
</g>
<!-- CompanySection&#45;&gt;Product -->
<g id="edge32" class="edge"><title>CompanySection&#45;&gt;Product</title>
<path style="fill:none;stroke:black;" d="M665,-562C632,-578 597,-593 567,-607"/>
<polygon style="fill:black;stroke:black;" points="664.862,-562.061 675.828,-562.112 669.431,-560.031 674,-558 674,-558 674,-558 669.431,-560.031 672.172,-553.888 664.862,-562.061 664.862,-562.061"/>
<ellipse style="fill:black;stroke:black;" cx="562.578" cy="-609.211" rx="4.00002" ry="4.00002"/>
</g>
<!-- CommercialProcess -->
<g id="node18" class="node"><title>CommercialProcess</title>
<ellipse style="fill:none;stroke:black;" cx="1003" cy="-1061" rx="102.843" ry="18"/>
<text text-anchor="middle" x="1003" y="-1056.9" style="font-family:Times New Roman;font-size:14.00;">CommercialProcess</text>
</g>
<!-- CommercialProcess&#45;&gt;Rental -->
<g id="edge6" class="edge"><title>CommercialProcess&#45;&gt;Rental</title>
<path style="fill:none;stroke:black;" d="M980,-1036C951,-1005 900,-950 859,-905"/>
<polygon style="fill:none;stroke:black;" points="977.454,-1038.4 987,-1043 982.404,-1033.45 977.454,-1038.4"/>
</g>
<!-- CommercialProcess&#45;&gt;Invoice -->
<g id="edge36" class="edge"><title>CommercialProcess&#45;&gt;Invoice</title>
<path style="fill:none;stroke:black;" d="M1002,-1087C999,-1152 993,-1318 990,-1408"/>
<ellipse style="fill:none;stroke:black;" cx="1002" cy="-1083" rx="4" ry="4"/>
<ellipse style="fill:black;stroke:black;" cx="990" cy="-1412" rx="4" ry="4"/>
</g>
<!-- Selling -->
<g id="node19" class="node"><title>Selling</title>
<polyline style="fill:none;stroke:black;" points="1375,-949 1540,-949 "/>
<path style="fill:none;stroke:black;" d="M1540,-949C1546,-949 1552,-955 1552,-961"/>
<polyline style="fill:none;stroke:black;" points="1552,-961 1552,-1038 "/>
<path style="fill:none;stroke:black;" d="M1552,-1038C1552,-1044 1546,-1050 1540,-1050"/>
<polyline style="fill:none;stroke:black;" points="1540,-1050 1375,-1050 "/>
<path style="fill:none;stroke:black;" d="M1375,-1050C1369,-1050 1363,-1044 1363,-1038"/>
<polyline style="fill:none;stroke:black;" points="1363,-1038 1363,-961 "/>
<path style="fill:none;stroke:black;" d="M1363,-961C1363,-955 1369,-949 1375,-949"/>
<text text-anchor="middle" x="1457" y="-1032.9" style="font-family:Times New Roman;font-size:14.00;">Selling</text>
<polyline style="fill:none;stroke:black;" points="1363,-1025 1552,-1025 "/>
<text text-anchor="start" x="1370.5" y="-1008.4" style="font-family:Times New Roman;font-size:14.00;">discount_i :integer</text>
<text text-anchor="start" x="1370.5" y="-991.4" style="font-family:Times New Roman;font-size:14.00;">price_i :integer</text>
<text text-anchor="start" x="1370.5" y="-974.4" style="font-family:Times New Roman;font-size:14.00;">workflow_state :string</text>
<text text-anchor="start" x="1370.5" y="-957.4" style="font-family:Times New Roman;font-size:14.00;">client_discount_i :integer</text>
</g>
<!-- CommercialProcess&#45;&gt;Selling -->
<g id="edge40" class="edge"><title>CommercialProcess&#45;&gt;Selling</title>
<path style="fill:none;stroke:black;" d="M1095,-1049C1173,-1038 1285,-1023 1363,-1012"/>
<polygon style="fill:none;stroke:black;" points="1094.6,-1045.52 1085,-1050 1095.3,-1052.49 1094.6,-1045.52"/>
</g>
<!-- Selling&#45;&gt;SellingItem -->
<g id="edge38" class="edge"><title>Selling&#45;&gt;SellingItem</title>
<path style="fill:none;stroke:black;" d="M1464,-939C1474,-867 1488,-748 1497,-677"/>
<polygon style="fill:black;stroke:black;" points="1464,-939.05 1458.52,-948.552 1463.5,-944.025 1463,-949 1463,-949 1463,-949 1463.5,-944.025 1467.48,-949.448 1464,-939.05 1464,-939.05"/>
<ellipse style="fill:black;stroke:black;" cx="1497.5" cy="-672.969" rx="4.00001" ry="4.00001"/>
<text text-anchor="middle" x="1499" y="-806.9" style="font-family:Times New Roman;font-size:14.00;">items</text>
</g>
<!-- User&#45;&gt;Client -->
<g id="edge42" class="edge"><title>User&#45;&gt;Client</title>
<path style="fill:none;stroke:black;" d="M1346,-313C1297,-380 1240,-457 1193,-520"/>
<polygon style="fill:black;stroke:black;" points="1346,-313 1355.6,-307.7 1349,-309 1352,-305 1352,-305 1352,-305 1349,-309 1348.4,-302.3 1346,-313 1346,-313"/>
<ellipse style="fill:black;stroke:black;" cx="1190.56" cy="-522.927" rx="4.00002" ry="4.00002"/>
</g>
<!-- Product&#45;&gt;RentalPeriod -->
<g id="edge48" class="edge"><title>Product&#45;&gt;RentalPeriod</title>
<path style="fill:none;stroke:black;" d="M492,-687C502,-759 522,-903 533,-984"/>
<polygon style="fill:black;stroke:black;" points="491.995,-686.95 495.478,-676.552 491.498,-681.975 491,-677 491,-677 491,-677 491.498,-681.975 486.522,-677.448 491.995,-686.95 491.995,-686.95"/>
<ellipse style="fill:black;stroke:black;" cx="533.504" cy="-988.031" rx="4.00001" ry="4.00001"/>
</g>
<!-- Product&#45;&gt;ProductBuyingPrice -->
<g id="edge44" class="edge"><title>Product&#45;&gt;ProductBuyingPrice</title>
<path style="fill:none;stroke:black;" d="M455,-602C384,-504 207,-266 137,-173"/>
<polygon style="fill:black;stroke:black;" points="455,-602 457.4,-612.7 458,-606 461,-610 461,-610 461,-610 458,-606 464.6,-607.3 455,-602 455,-602"/>
<ellipse style="fill:black;stroke:black;" cx="134.325" cy="-169.255" rx="4.00002" ry="4.00002"/>
<text text-anchor="middle" x="313" y="-371.9" style="font-family:Times New Roman;font-size:14.00;">buying_prices</text>
</g>
<!-- Product&#45;&gt;Distributor -->
<g id="edge46" class="edge"><title>Product&#45;&gt;Distributor</title>
<path style="fill:none;stroke:black;" d="M494,-600C505,-540 525,-429 542,-333"/>
<polygon style="fill:black;stroke:black;" points="493.961,-600.194 487.587,-609.117 492.981,-605.097 492,-610 492,-610 492,-610 492.981,-605.097 496.413,-610.883 493.961,-600.194 493.961,-600.194"/>
<polygon style="fill:black;stroke:black;" points="542.039,-332.806 548.413,-323.883 543.019,-327.903 544,-323 544,-323 544,-323 543.019,-327.903 539.587,-322.117 542.039,-332.806 542.039,-332.806"/>
</g>
<!-- Authlogic::Session::Base -->
<g id="node26" class="node"><title>Authlogic::Session::Base</title>
<ellipse style="fill:none;stroke:black;" cx="1177" cy="-875" rx="127.163" ry="18"/>
<text text-anchor="middle" x="1177" y="-870.9" style="font-family:Times New Roman;font-size:14.00;">Authlogic::Session::Base</text>
</g>
<!-- Authlogic::Session::Base&#45;&gt;UserSession -->
<g id="edge8" class="edge"><title>Authlogic::Session::Base&#45;&gt;UserSession</title>
<path style="fill:none;stroke:black;" d="M1040,-876C1038,-876 1037,-876 1035,-876"/>
<polygon style="fill:none;stroke:black;" points="1040,-879.5 1050,-876 1040,-872.5 1040,-879.5"/>
</g>
</g>
</svg>
